{
    "asset" : {
        "generator" : "Khronos glTF Blender I/O v1.1.45",
        "version" : "2.0"
    },
    "scene" : 0,
    "scenes" : [
        {
            "name" : "Scene",
            "nodes" : [
                0
            ]
        }
    ],
    "nodes" : [
        {
            "mesh" : 0,
            "name" : "House",
            "rotation" : [
                0.7071068286895752,
                0,
                0,
                0.7071067094802856
            ],
            "scale" : [
                0.8844373226165771,
                0.8844373226165771,
                0.8844373226165771
            ]
        }
    ],
    "materials" : [
        {
            "doubleSided" : true,
            "emissiveFactor" : [
                0,
                0,
                0
            ],
            "name" : "Material.001",
            "normalTexture" : {
                "index" : 0,
                "texCoord" : 0
            },
            "pbrMetallicRoughness" : {
                "baseColorTexture" : {
                    "index" : 1,
                    "texCoord" : 0
                },
                "metallicRoughnessTexture" : {
                    "index" : 2,
                    "texCoord" : 0
                }
            }
        }
    ],
    "meshes" : [
        {
            "name" : "Mesh",
            "primitives" : [
                {
                    "attributes" : {
                        "POSITION" : 0,
                        "NORMAL" : 1,
                        "TEXCOORD_0" : 2
                    },
                    "indices" : 3,
                    "material" : 0
                }
            ]
        }
    ],
    "textures" : [
        {
            "source" : 0
        },
        {
            "source" : 1
        },
        {
            "source" : 2
        }
    ],
    "images" : [
        {
            "mimeType" : "image/png",
            "name" : "cottage_normal",
            "uri" : "cottage_normal.png"
        },
        {
            "mimeType" : "image/png",
            "name" : "cottage",
            "uri" : "cottage.png"
        },
        {
            "mimeType" : "image/png",
            "name" : "cottage_roughnessMetallic",
            "uri" : "cottage_roughnessMetallic.png"
        }
    ],
    "accessors" : [
        {
            "bufferView" : 0,
            "componentType" : 5126,
            "count" : 610,
            "max" : [
                5.52685022354126,
                3.0400099754333496,
                -0.003370000049471855
            ],
            "min" : [
                -5.501309871673584,
                -3.0497798919677734,
                -4.788559913635254
            ],
            "type" : "VEC3"
        },
        {
            "bufferView" : 1,
            "componentType" : 5126,
            "count" : 610,
            "type" : "VEC3"
        },
        {
            "bufferView" : 2,
            "componentType" : 5126,
            "count" : 610,
            "type" : "VEC2"
        },
        {
            "bufferView" : 3,
            "componentType" : 5123,
            "count" : 1434,
            "type" : "SCALAR"
        }
    ],
    "bufferViews" : [
        {
            "buffer" : 0,
            "byteLength" : 7320,
            "byteOffset" : 0
        },
        {
            "buffer" : 0,
            "byteLength" : 7320,
            "byteOffset" : 7320
        },
        {
            "buffer" : 0,
            "byteLength" : 4880,
            "byteOffset" : 14640
        },
        {
            "buffer" : 0,
            "byteLength" : 2868,
            "byteOffset" : 19520
        }
    ],
    "buffers" : [
        {
            "byteLength" : 22388,
            "uri" : "house.bin"
        }
    ]
}
