{
    "asset" : {
        "generator" : "Khronos glTF Blender I/O v1.1.46",
        "version" : "2.0"
    },
    "scene" : 0,
    "scenes" : [
        {
            "name" : "Scene",
            "nodes" : [
                2
            ]
        }
    ],
    "nodes" : [
        {
            "name" : "Root"
        },
        {
            "mesh" : 0,
            "name" : "Cylinder",
            "skin" : 0
        },
        {
            "children" : [
                1,
                0
            ],
            "name" : "Armature"
        }
    ],
    "animations" : [
        {
            "channels" : [
                {
                    "sampler" : 0,
                    "target" : {
                        "node" : 0,
                        "path" : "translation"
                    }
                },
                {
                    "sampler" : 1,
                    "target" : {
                        "node" : 0,
                        "path" : "rotation"
                    }
                },
                {
                    "sampler" : 2,
                    "target" : {
                        "node" : 0,
                        "path" : "scale"
                    }
                }
            ],
            "name" : "Rotate",
            "samplers" : [
                {
                    "input" : 7,
                    "interpolation" : "LINEAR",
                    "output" : 8
                },
                {
                    "input" : 7,
                    "interpolation" : "LINEAR",
                    "output" : 9
                },
                {
                    "input" : 7,
                    "interpolation" : "LINEAR",
                    "output" : 10
                }
            ]
        }
    ],
    "meshes" : [
        {
            "name" : "Cylinder",
            "primitives" : [
                {
                    "attributes" : {
                        "POSITION" : 0,
                        "NORMAL" : 1,
                        "TEXCOORD_0" : 2,
                        "JOINTS_0" : 3,
                        "WEIGHTS_0" : 4
                    },
                    "indices" : 5
                }
            ]
        }
    ],
    "skins" : [
        {
            "inverseBindMatrices" : 6,
            "joints" : [
                0
            ],
            "name" : "Armature"
        }
    ],
    "accessors" : [
        {
            "bufferView" : 0,
            "componentType" : 5126,
            "count" : 192,
            "max" : [
                0.9999999403953552,
                0.9999997615814209,
                0.18722176551818848
            ],
            "min" : [
                -0.9999998807907104,
                -1.0000003576278687,
                -0.187222421169281
            ],
            "type" : "VEC3"
        },
        {
            "bufferView" : 1,
            "componentType" : 5126,
            "count" : 192,
            "type" : "VEC3"
        },
        {
            "bufferView" : 2,
            "componentType" : 5126,
            "count" : 192,
            "type" : "VEC2"
        },
        {
            "bufferView" : 3,
            "componentType" : 5123,
            "count" : 192,
            "type" : "VEC4"
        },
        {
            "bufferView" : 4,
            "componentType" : 5126,
            "count" : 192,
            "type" : "VEC4"
        },
        {
            "bufferView" : 5,
            "componentType" : 5123,
            "count" : 372,
            "type" : "SCALAR"
        },
        {
            "bufferView" : 6,
            "componentType" : 5126,
            "count" : 1,
            "type" : "MAT4"
        },
        {
            "bufferView" : 7,
            "componentType" : 5126,
            "count" : 181,
            "max" : [
                7.5
            ],
            "min" : [
                0
            ],
            "type" : "SCALAR"
        },
        {
            "bufferView" : 8,
            "componentType" : 5126,
            "count" : 181,
            "type" : "VEC3"
        },
        {
            "bufferView" : 9,
            "componentType" : 5126,
            "count" : 181,
            "type" : "VEC4"
        },
        {
            "bufferView" : 10,
            "componentType" : 5126,
            "count" : 181,
            "type" : "VEC3"
        }
    ],
    "bufferViews" : [
        {
            "buffer" : 0,
            "byteLength" : 2304,
            "byteOffset" : 0
        },
        {
            "buffer" : 0,
            "byteLength" : 2304,
            "byteOffset" : 2304
        },
        {
            "buffer" : 0,
            "byteLength" : 1536,
            "byteOffset" : 4608
        },
        {
            "buffer" : 0,
            "byteLength" : 1536,
            "byteOffset" : 6144
        },
        {
            "buffer" : 0,
            "byteLength" : 3072,
            "byteOffset" : 7680
        },
        {
            "buffer" : 0,
            "byteLength" : 744,
            "byteOffset" : 10752
        },
        {
            "buffer" : 0,
            "byteLength" : 64,
            "byteOffset" : 11496
        },
        {
            "buffer" : 0,
            "byteLength" : 724,
            "byteOffset" : 11560
        },
        {
            "buffer" : 0,
            "byteLength" : 2172,
            "byteOffset" : 12284
        },
        {
            "buffer" : 0,
            "byteLength" : 2896,
            "byteOffset" : 14456
        },
        {
            "buffer" : 0,
            "byteLength" : 2172,
            "byteOffset" : 17352
        }
    ],
    "buffers" : [
        {
            "byteLength" : 19524,
            "uri" : "Floor2.bin"
        }
    ]
}
